<?xml version="1.0" encoding="UTF-8"?> <svg xmlns="http://www.w3.org/2000/svg" xmlns:xlink="http://www.w3.org/1999/xlink" viewBox="0 0 14.14 21.95"><defs><style>.cls-1{fill:url(#Degradado_sin_nombre_11);}</style><linearGradient id="Degradado_sin_nombre_11" x1="3.26" y1="1.11" x2="13.27" y2="18.46" gradientUnits="userSpaceOnUse"><stop offset="0.08" stop-color="#dcc177"></stop><stop offset="0.5" stop-color="#f4edd0"></stop><stop offset="0.97" stop-color="#dcc177"></stop></linearGradient></defs><g id="Capa_2" data-name="Capa 2"><g id="Capa_1-2" data-name="Capa 1"><path class="cls-1" d="M7.47,0c.3.07.61.07.91.13a6.84,6.84,0,0,1,2.71,1.13,6.93,6.93,0,0,1,2.45,3,7.18,7.18,0,0,1,.58,3.43A8.75,8.75,0,0,1,13,11.14L10.26,16.4c-.73,1.43-2,3.89-2.68,5.24a.57.57,0,0,1-1,0c-1.07-2.08-3.57-7-4.85-9.5-.43-.85-.9-1.68-1.25-2.56a6.77,6.77,0,0,1-.45-3A7,7,0,0,1,2,2.14,6.61,6.61,0,0,1,3.71.86,6.64,6.64,0,0,1,6.62,0l.06,0ZM9.9,7.08A2.83,2.83,0,1,0,7.06,9.89,2.84,2.84,0,0,0,9.9,7.08Z"></path></g></g></svg> 