<?xml version="1.0" encoding="UTF-8"?> <svg xmlns="http://www.w3.org/2000/svg" xmlns:xlink="http://www.w3.org/1999/xlink" viewBox="0 0 20.37 20.38"><defs><style>.cls-1{fill:url(#Degradado_sin_nombre_11);}.cls-2{fill:url(#Degradado_sin_nombre_11-2);}</style><linearGradient id="Degradado_sin_nombre_11" x1="3.81" y1="2.09" x2="13.98" y2="19.72" gradientUnits="userSpaceOnUse"><stop offset="0.08" stop-color="#dcc177"></stop><stop offset="0.5" stop-color="#f4edd0"></stop><stop offset="0.97" stop-color="#dcc177"></stop></linearGradient><linearGradient id="Degradado_sin_nombre_11-2" x1="6.72" y1="5.31" x2="12.72" y2="15.69" xlink:href="#Degradado_sin_nombre_11"></linearGradient></defs><g id="Capa_2" data-name="Capa 2"><g id="Capa_1-2" data-name="Capa 1"><path class="cls-1" d="M20.18,8.38A9.69,9.69,0,0,0,12.53.31a9.82,9.82,0,0,0-10.6,4,9.85,9.85,0,0,0-.38,11.17,1.3,1.3,0,0,1,.16,1c-.29,1.24-.56,2.49-.86,3.86,1.26-.39,2.41-.71,3.53-1.11a1.9,1.9,0,0,1,1.53.1,9.74,9.74,0,0,0,10.5-1.18A9.57,9.57,0,0,0,20.18,8.38Zm-4.27,8.35a8.65,8.65,0,0,1-9.62,1.21,1.7,1.7,0,0,0-1.52-.11c-.69.27-1.4.45-2.22.71.19-.89.32-1.66.53-2.41a1.5,1.5,0,0,0-.21-1.28,8.31,8.31,0,0,1-.22-9,8.33,8.33,0,0,1,7.82-4.4,8.7,8.7,0,0,1,5.44,15.24Z"></path><path class="cls-2" d="M14.39,12.72c-.4-.21-.84-.35-1.24-.56a1.22,1.22,0,0,0-1.59.27.57.57,0,0,1-.9,0A12.65,12.65,0,0,1,8.08,9.62a.62.62,0,0,1,.13-.95,1.13,1.13,0,0,0,.34-1.55A11.81,11.81,0,0,1,8.09,5.9c-.32-.85-.93-1-1.64-.39a2.7,2.7,0,0,0-1,2.39,4.15,4.15,0,0,0,.4,2,10.1,10.1,0,0,0,4.64,4.84,4.68,4.68,0,0,0,2.46.47,2.3,2.3,0,0,0,1.84-1A.93.93,0,0,0,14.39,12.72Z"></path></g></g></svg> 