<?xml version="1.0" encoding="UTF-8"?> <svg xmlns="http://www.w3.org/2000/svg" xmlns:xlink="http://www.w3.org/1999/xlink" viewBox="0 0 19.12 19.12"><defs><style>.cls-1{fill:url(#Degradado_sin_nombre_11);}.cls-2{fill:url(#Degradado_sin_nombre_11-2);}</style><linearGradient id="Degradado_sin_nombre_11" x1="4.78" y1="1.29" x2="14.33" y2="17.83" gradientUnits="userSpaceOnUse"><stop offset="0.08" stop-color="#dcc177"></stop><stop offset="0.5" stop-color="#f4edd0"></stop><stop offset="0.97" stop-color="#dcc177"></stop></linearGradient><linearGradient id="Degradado_sin_nombre_11-2" x1="6.39" y1="4.21" x2="9.91" y2="10.3" xlink:href="#Degradado_sin_nombre_11"></linearGradient></defs><g id="Capa_2" data-name="Capa 2"><g id="Capa_1-2" data-name="Capa 1"><path class="cls-1" d="M19.11,8.81c-.05-.23-.09-.47-.13-.7a10,10,0,0,0-.27-1.3A9.59,9.59,0,0,0,10.52.06a.3.3,0,0,1-.12,0l-.11,0H8.81c-.24.06-.49.1-.73.14A8.65,8.65,0,0,0,6.89.38,9.55,9.55,0,0,0,.06,8.6a.26.26,0,0,1,0,.11l0,.11v1.49c.05.23.09.46.13.7A9.92,9.92,0,0,0,.41,12.3a9.55,9.55,0,0,0,8.18,6.75l.12,0,.09,0h1.51L11,19a8.4,8.4,0,0,0,1.19-.25,9.52,9.52,0,0,0,6.83-8.2l0-.13,0-.08V8.81Zm-1.64.76a7.93,7.93,0,0,1-7.91,7.9h0a7.91,7.91,0,0,1,0-15.82h0A7.91,7.91,0,0,1,17.47,9.57Z"></path><path class="cls-2" d="M10,2.63a.75.75,0,0,0-.74-.06.88.88,0,0,0-.53.92V5.27c0,1.08,0,2.17,0,3.25,0,.17,0,.2,0,.2a.63.63,0,0,1-.2,0c-.66,0-1.34,0-2,0H6c-.6,0-1,.32-1,.82a.76.76,0,0,0,.21.57,1.05,1.05,0,0,0,.75.26H9.41a.86.86,0,0,0,1-1V5.61c0-.74,0-1.47,0-2.2A.91.91,0,0,0,10,2.63Z"></path></g></g></svg> 