<svg width="246" height="177" viewBox="0 0 246 177" fill="none" xmlns="http://www.w3.org/2000/svg">
<g clip-path="url(#clip0_3_9)">
<path fill-rule="evenodd" clip-rule="evenodd" d="M37.2422 0.00174896C31.4193 0.0675374 25.5932 1.73492 21.0888 4.8929C16.797 7.90211 15.986 13.6181 15.995 18.0061C16.0138 27.0794 16.7503 37.3462 17.41 44.9514L9.89924 53.4143L9.71186 60.4241C9.16688 61.1946 5.20427 66.8268 3.54343 70.8756C1.72567 75.3062 0.302394 80.1077 0.0634095 85.0672C-0.191961 90.3704 0.270173 96.0317 2.44206 101.14C3.38674 103.362 5.21607 105.628 6.83989 107.519C8.14478 109.039 8.88133 109.773 9.29502 110.196C9.26477 110.706 9.22267 111.264 9.20325 112.59C9.17681 114.394 9.19052 116.504 9.55125 118.219C10.1688 121.155 11.3587 123.98 12.9701 126.483C13.8694 127.88 15.249 129.309 16.4539 130.51C17.2491 131.303 17.5308 131.545 17.9262 131.91C17.7058 141.576 17.7067 153.272 18.5993 161.44C19.0535 165.594 20.8587 170.393 24.936 172.756C33.4002 177.661 45.3281 177.253 53.6213 172.175C57.4982 169.8 59.5146 165.203 59.74 160.962C60.1597 153.042 60.436 141.207 60.6119 131.237C61.122 130.821 61.8067 130.244 62.5661 129.55C64.0288 128.215 65.689 126.632 66.6083 124.743C68.3897 121.084 67.9898 117.186 68.1762 114.032C68.3105 111.742 68.1092 108.576 68.0615 107.764C68.393 107.367 69.0169 106.637 70.1151 105.179C71.4685 103.382 73.0018 101.234 73.8475 99.2818C75.4364 95.6141 75.9807 91.6882 76.295 87.9774C76.647 83.82 76.9473 79.2905 75.7061 74.8833C74.2167 69.5967 71.013 65.1687 68.0806 61.0742C66.9085 59.4378 65.1812 57.7908 64.6159 57.2385L64.3482 50.81L60.4284 45.5403L56.9636 43.0278C57.3567 36.028 57.7481 26.6524 57.7055 17.2527V17.2488C57.6953 15.2684 57.5989 12.9596 57.0439 10.7209C56.489 8.48224 55.4381 6.22287 53.3765 4.72846C48.8861 1.4735 43.0652 -0.0640395 37.2422 0.00174896ZM37.2652 4.09364C42.374 4.0351 47.4643 5.27914 51.0782 7.89871C52.1175 8.65209 52.8177 9.94758 53.2427 11.6617C53.6676 13.3759 53.7801 15.4152 53.7895 17.268C53.8586 32.5309 52.8932 45.8088 52.5505 50.267C51.1196 49.251 49.5098 48.1347 47.7435 47.6512C41.2943 45.8861 34.2282 46.2887 27.938 48.2249C25.7213 49.0299 23.6257 50.4012 21.9799 51.5825C21.4935 46.9495 19.9393 31.6143 19.911 17.9946C19.9032 14.2033 20.9389 9.78313 23.3375 8.1014C27.0285 5.51364 32.1564 4.15211 37.2652 4.09364ZM56.673 47.6512L57.6443 48.3549L60.4857 52.1753L60.7649 58.8714L61.3156 59.4145C61.3156 59.4145 64.0573 62.1799 64.895 63.3496C67.8232 67.4382 70.6944 71.5377 71.9354 75.9426C72.9364 79.4971 72.7401 83.5597 72.3943 87.6447C72.0933 91.198 71.565 94.7011 70.2565 97.7214C69.7164 98.9683 68.2669 101.12 66.9869 102.819C65.7068 104.519 64.5967 105.825 64.5967 105.825L64.0919 106.425L64.1378 107.205C64.1378 107.205 64.3832 111.832 64.2679 113.798C64.0584 117.343 64.241 120.654 63.0862 123.026C62.7757 123.664 61.7536 124.818 60.6884 125.883C60.7613 120.787 60.8528 114.311 60.8528 114.311L60.8949 110.353L57.7246 112.72C57.7246 112.72 56.1098 113.927 54.019 115.275C51.9282 116.622 49.2917 118.089 47.7856 118.533C43.0224 119.935 37.7485 120.319 33.0242 119.244C31.3121 118.854 28.3034 117.31 25.9188 115.856C23.5342 114.402 21.6931 113.072 21.6931 113.072L18.7943 110.984L18.5916 114.552C18.5916 114.552 18.331 119.864 18.106 126.556C17.3367 125.727 16.6137 124.906 16.2627 124.361C14.9038 122.25 13.8953 119.848 13.3831 117.412C13.1709 116.403 13.0944 114.337 13.1192 112.647C13.144 110.958 13.2378 109.603 13.2378 109.603L13.299 108.716L12.6718 108.085C12.6718 108.085 11.3329 106.741 9.81129 104.968C8.28965 103.196 6.59979 100.917 6.04445 99.6106C4.20677 95.2883 3.73791 90.1938 3.97556 85.2585C4.18418 80.9293 5.45363 76.5344 7.16494 72.3632C8.5033 69.1006 13.2569 62.1679 13.2569 62.1679L13.5972 61.686L13.777 54.944L17.8956 50.3091C18.1793 53.2302 18.3977 55.3286 18.4043 55.3876V59.4871L21.6166 56.7949C21.6166 56.7949 22.8332 55.7785 24.4197 54.6457C26.0063 53.5129 28.0467 52.2897 29.0891 51.9688C34.7285 50.2329 41.1178 49.8998 46.7071 51.4295C47.4934 51.6448 49.2554 52.663 50.6078 53.6323C51.9603 54.6016 52.9941 55.4832 52.9941 55.4832L55.8967 57.9575L56.2179 54.16C56.2179 54.16 56.4279 51.3727 56.673 47.6512H56.673ZM56.8489 118.078C56.8008 122.512 56.5625 146.965 55.8317 160.756C55.6682 163.809 53.9204 167.4 51.5753 168.836C44.6914 173.052 33.8343 173.386 26.9016 169.368C24.5207 167.988 22.8503 164.29 22.4923 161.016C20.962 147.012 22.1137 123.292 22.3738 118.208C23.0417 118.648 23.0306 118.684 23.8805 119.202C26.4057 120.742 29.4223 122.442 32.1561 123.065C37.6806 124.322 43.5703 123.858 48.8907 122.292C51.2868 121.587 53.9276 119.994 56.1414 118.567C56.5407 118.31 56.4893 118.319 56.8489 118.078V118.078Z" fill="url(#paint0_linear_3_9)"/>
<path fill-rule="evenodd" clip-rule="evenodd" d="M34.2211 58.0744C29.698 58.1684 25.2209 59.0678 21.2762 61.39C16.0448 64.4694 14.1229 70.5631 12.209 75.1839C10.6628 78.917 9.40269 83.0981 9.57035 87.4252C9.69924 90.7348 10.8962 93.8067 12.2741 96.5039C14.4642 100.79 17.2518 105.202 21.345 108.321C24.5368 110.752 28.4421 112.261 32.3664 112.772C37.9312 113.496 43.8559 112.848 49.0934 110.669C55.4481 108.024 61.7861 103.793 65.591 97.7008C68.3112 93.3457 69.2898 87.9343 68.7574 82.9431C68.1467 77.2175 65.6498 71.4915 61.6942 67.2525C57.925 63.213 52.654 60.7213 47.4452 59.5888C43.3132 58.6904 38.7442 57.9803 34.2211 58.0744V58.0744ZM34.3664 62.0401C38.4205 61.9571 42.6658 62.5581 46.6154 63.4168C51.1812 64.4095 55.7699 66.6423 58.8298 69.9218C62.1336 73.4623 64.3458 78.4946 64.8644 83.3562C65.3091 87.5247 64.4253 92.1698 62.2678 95.6243C59.078 100.731 53.4123 104.63 47.5867 107.055C43.0711 108.934 37.78 109.529 32.8712 108.891C29.6069 108.466 26.298 107.172 23.7199 105.208C20.3755 102.66 17.8283 98.7663 15.7617 94.7217C14.5221 92.2953 13.5814 89.7138 13.4863 87.2721C13.3524 83.8171 14.3933 80.1439 15.8267 76.6829C17.8109 71.8924 19.7248 66.8505 23.2648 64.7667C26.4494 62.892 30.3124 62.1231 34.3664 62.0401Z" fill="url(#paint1_linear_3_9)"/>
<path fill-rule="evenodd" clip-rule="evenodd" d="M38.8981 67.0422L34.986 67.2449L36.1447 89.6586L60.0918 86.932L59.6482 83.0426L39.8389 85.2952L38.8981 67.0422Z" fill="url(#paint2_linear_3_9)"/>
<path d="M104.389 75.0709C109.986 75.0709 112.785 77.2409 112.785 81.5809C112.785 84.0715 111.589 85.9207 109.197 87.1292C110.825 87.5977 112.039 88.4176 112.841 89.5889C113.642 90.7602 114.043 92.172 114.043 93.8241C114.043 96.1913 113.186 98.0592 111.472 99.4278C109.758 100.796 107.508 101.481 104.722 101.481H91.9236V75.0709H104.389V75.0709ZM103.649 85.7606C105.992 85.7606 107.163 84.7126 107.163 82.6166C107.163 80.5946 105.856 79.5835 103.242 79.5835H97.7308V85.7606H103.649ZM103.982 96.9681C106.818 96.9681 108.235 95.8091 108.235 93.4912C108.235 90.976 106.855 89.7183 104.093 89.7183H97.7308V96.9681H103.982V96.9681ZM122.809 75.0709V101.481H117.557V75.0709H122.809ZM136.236 81.8398C139.293 81.8398 141.71 82.7707 143.485 84.6324C145.261 86.4942 146.149 88.9294 146.149 91.9377C146.149 94.9707 145.242 97.4057 143.43 99.2429C141.618 101.08 139.22 101.999 136.236 101.999C133.203 101.999 130.798 101.068 129.023 99.2059C127.248 97.3441 126.36 94.9215 126.36 91.9377C126.36 88.8552 127.266 86.4016 129.078 84.577C130.891 82.7523 133.277 81.8398 136.236 81.8398V81.8398ZM131.612 91.9377C131.612 93.8856 132.007 95.3898 132.796 96.4502C133.585 97.5107 134.732 98.0407 136.236 98.0407C137.789 98.0407 138.954 97.4982 139.731 96.4133C140.508 95.3283 140.896 93.8365 140.896 91.9377C140.896 89.9649 140.496 88.4484 139.694 87.3881C138.893 86.3278 137.728 85.7976 136.199 85.7976C134.719 85.7976 133.585 86.3277 132.796 87.3881C132.007 88.4484 131.612 89.9649 131.612 91.9377V91.9377ZM158.725 81.8398C161.314 81.8398 163.422 82.4994 165.05 83.8187C166.677 85.138 167.565 86.8948 167.713 89.0895H162.571C162.226 86.8948 160.932 85.7976 158.688 85.7976C157.307 85.7976 156.216 86.3647 155.414 87.499C154.613 88.6334 154.212 90.1376 154.212 92.0116C154.212 93.8117 154.594 95.2666 155.359 96.3763C156.123 97.4859 157.196 98.0407 158.577 98.0407C160.969 98.0407 162.362 96.7461 162.756 94.157H167.824C167.479 96.6968 166.498 98.6388 164.883 99.9826C163.268 101.326 161.178 101.999 158.614 101.999C155.778 101.999 153.46 101.092 151.66 99.2799C149.86 97.4674 148.96 95.1064 148.96 92.1966C148.96 89.0402 149.847 86.5251 151.623 84.6509C153.398 82.7767 155.766 81.8398 158.725 81.8398V81.8398ZM179.956 81.8398C182.545 81.8398 184.654 82.4994 186.281 83.8187C187.909 85.138 188.796 86.8948 188.944 89.0895H183.803C183.458 86.8948 182.163 85.7976 179.919 85.7976C178.538 85.7976 177.447 86.3647 176.646 87.499C175.844 88.6334 175.443 90.1376 175.443 92.0116C175.443 93.8117 175.826 95.2666 176.59 96.3763C177.354 97.4859 178.427 98.0407 179.808 98.0407C182.2 98.0407 183.593 96.7461 183.988 94.157H189.055C188.71 96.6968 187.73 98.6388 186.115 99.9826C184.499 101.326 182.409 101.999 179.845 101.999C177.009 101.999 174.691 101.092 172.891 99.2799C171.091 97.4674 170.191 95.1064 170.191 92.1966C170.191 89.0402 171.079 86.5251 172.854 84.6509C174.63 82.7767 176.997 81.8398 179.956 81.8398V81.8398ZM200.817 81.8398C206.391 81.8645 209.177 83.6768 209.177 87.2771V97.4119C209.177 99.286 209.399 100.642 209.843 101.481H204.516C204.319 100.889 204.196 100.272 204.146 99.6312C202.593 101.209 200.448 101.999 197.71 101.999C195.713 101.999 194.129 101.493 192.957 100.482C191.786 99.471 191.201 98.0653 191.201 96.2653C191.201 94.5145 191.755 93.1583 192.865 92.1966C193.999 91.1856 196.058 90.5444 199.042 90.2732C201.163 90.0512 202.507 89.7738 203.074 89.4409C203.641 89.108 203.925 88.5964 203.925 87.9059C203.925 87.0429 203.666 86.4017 203.148 85.9825C202.63 85.5633 201.767 85.3537 200.559 85.3537C199.449 85.3537 198.611 85.5818 198.043 86.038C197.476 86.4942 197.143 87.2278 197.045 88.2388H191.792C191.916 86.1429 192.779 84.5524 194.382 83.4673C195.984 82.3823 198.13 81.8398 200.818 81.8398H200.817ZM196.453 96.0434C196.453 97.6709 197.525 98.4846 199.671 98.4846C202.482 98.4599 203.9 97.0174 203.924 94.157V92.1226C203.505 92.5418 202.445 92.85 200.743 93.0473C199.264 93.2199 198.179 93.522 197.489 93.9535C196.798 94.3851 196.453 95.0817 196.453 96.0434ZM224.416 81.8398C224.86 81.8398 225.242 81.9015 225.563 82.0248V86.9072C224.996 86.7839 224.367 86.7223 223.676 86.7223C220.224 86.7223 218.498 88.769 218.498 92.8624V101.481H213.246V82.3577H218.239V85.9085H218.313C218.831 84.6756 219.651 83.6892 220.773 82.9495C221.895 82.2097 223.109 81.8398 224.416 81.8398H224.416ZM235.809 81.8398C237.609 81.8398 239.211 82.259 240.617 83.0974C242.023 83.9358 243.126 85.1502 243.927 86.7407C244.729 88.3312 245.13 90.1622 245.13 92.2335C245.13 92.4308 245.117 92.7514 245.093 93.1952H231.296C231.345 94.7241 231.746 95.9139 232.498 96.7646C233.25 97.6153 234.403 98.0407 235.956 98.0407C236.918 98.0407 237.8 97.8003 238.601 97.3194C239.403 96.8386 239.914 96.2529 240.136 95.5625H244.76C243.403 99.8531 240.42 101.998 235.808 101.998C234.058 101.974 232.436 101.592 230.944 100.852C229.453 100.112 228.263 98.9593 227.375 97.3934C226.487 95.8275 226.044 94.009 226.044 91.9376C226.044 89.9896 226.494 88.214 227.394 86.6113C228.294 85.0086 229.49 83.8126 230.981 83.0234C232.473 82.2343 234.082 81.8398 235.808 81.8398L235.809 81.8398ZM239.84 89.8663C239.594 88.4361 239.137 87.4005 238.472 86.7593C237.806 86.1181 236.857 85.7976 235.624 85.7976C234.341 85.7976 233.33 86.1613 232.591 86.8887C231.851 87.6162 231.419 88.6087 231.296 89.8663H239.84Z" fill="white"/>
</g>
<defs>
<linearGradient id="paint0_linear_3_9" x1="0" y1="-0.000274658" x2="76.603" y2="-0.000274658" gradientUnits="userSpaceOnUse">
<stop stop-color="#8F5E25"/>
<stop offset="0.5" stop-color="#FBF4A1"/>
<stop offset="1" stop-color="#8F5E25"/>
</linearGradient>
<linearGradient id="paint1_linear_3_9" x1="9.55534" y1="58.066" x2="68.8969" y2="58.066" gradientUnits="userSpaceOnUse">
<stop stop-color="#8F5E25"/>
<stop offset="0.5" stop-color="#FBF4A1"/>
<stop offset="1" stop-color="#8F5E25"/>
</linearGradient>
<linearGradient id="paint2_linear_3_9" x1="34.986" y1="67.0422" x2="60.0918" y2="67.0422" gradientUnits="userSpaceOnUse">
<stop stop-color="#8F5E25"/>
<stop offset="0.5" stop-color="#FBF4A1"/>
<stop offset="1" stop-color="#8F5E25"/>
</linearGradient>
<clipPath id="clip0_3_9">
<rect width="245.13" height="176.219" fill="white"/>
</clipPath>
</defs>
</svg>
